<svg width="24" height="25" viewBox="0 0 24 25" fill="none" xmlns="http://www.w3.org/2000/svg">
<path d="M19.4851 20.6536L13.2231 14.3916C12.7231 14.8176 12.1481 15.1472 11.4981 15.3806C10.8481 15.6139 10.1948 15.7306 9.53811 15.7306C7.93677 15.7306 6.58144 15.1762 5.47211 14.0676C4.36277 12.9582 3.80811 11.6032 3.80811 10.0026C3.80811 8.40189 4.36211 7.04622 5.47011 5.93555C6.57877 4.82422 7.93344 4.26855 9.53411 4.26855C11.1354 4.26855 12.4914 4.82322 13.6021 5.93255C14.7128 7.04189 15.2681 8.39755 15.2681 9.99955C15.2681 10.6942 15.1451 11.3666 14.8991 12.0166C14.6524 12.6666 14.3291 13.2226 13.9291 13.6846L20.1911 19.9456L19.4851 20.6536ZM9.53811 14.7296C10.8648 14.7296 11.9851 14.2729 12.8991 13.3596C13.8124 12.4462 14.2691 11.3259 14.2691 9.99855C14.2691 8.67189 13.8124 7.55189 12.8991 6.63855C11.9858 5.72522 10.8658 5.26855 9.5391 5.26855C8.21244 5.26855 7.09211 5.72522 6.17811 6.63855C5.26477 7.55189 4.80811 8.67189 4.80811 9.99855C4.80811 11.3252 5.26477 12.4452 6.17811 13.3586C7.09144 14.2719 8.21144 14.7296 9.53811 14.7296Z" fill="#1B1B1B"/>
</svg>
